# xmcd
#
# Track frame offsets: 
#        183
#        18158
#        29370
#        39480
#        52285
#        64930
#        80520
#        93098
#        104713
#        115805
#        133305
#        146843
#        160075
#        175963
#        188018
#        198698
#        210560
#        217248
#
# Disc length: 3079 seconds
#
# Revision: 4
# Processed by: cddbd v1.5.2PL0 Copyright (c) Steve Scherf et al.
# Submitted via: ExactAudioCopy v1.1
#
DISCID=130c0512
DTITLE=Don Williams - I Believe In You
DYEAR=1995
DGENRE=Country
TTITLE0=Good Ole Boys Like Me
TTITLE1=Storybook Children
TTITLE2=Take My Hand For A While
TTITLE3=Amanda
TTITLE4=There's Never Been A Time
TTITLE5=Tears
TTITLE6=Coming Apart
TTITLE7=Follow Me Back To Louisville
TTITLE8=Spend Some Time With Me
TTITLE9=I Believe In You
TTITLE10=Ruby Tuesday
TTITLE11=Where Do I Go From Here
TTITLE12=I've Been Loved By The Best
TTITLE13=On Her Way To Being A Woman
TTITLE14=(There's) Always Something There To Remind Me
TTITLE15=Tulsa Time
TTITLE16=Lord I Hope This Day Is Good
TTITLE17=You're My Best Friend
EXTD=
EXTT0=
EXTT1=
EXTT2=
EXTT3=
EXTT4=
EXTT5=
EXTT6=
EXTT7=
EXTT8=
EXTT9=
EXTT10=
EXTT11=
EXTT12=
EXTT13=
EXTT14=
EXTT15=
EXTT16=
EXTT17=
PLAYORDER=
